<?xml version="1.0" standalone="no"?>
<!DOCTYPE svg PUBLIC "-//W3C//DTD SVG 20010904//EN"
 "http://www.w3.org/TR/2001/REC-SVG-20010904/DTD/svg10.dtd">
<svg version="1.0" xmlns="http://www.w3.org/2000/svg"
 width="260.000000pt" height="260.000000pt" viewBox="0 0 260.000000 260.000000"
 preserveAspectRatio="xMidYMid meet">
<metadata>
Created by potrace 1.11, written by Peter Selinger 2001-2013
</metadata>
<g transform="translate(0.000000,260.000000) scale(0.100000,-0.100000)"
fill="#000000" stroke="none">
<path d="M0 1300 l0 -1300 1300 0 1300 0 0 1300 0 1300 -1300 0 -1300 0 0
-1300z m1340 105 c26 -32 -13 -81 -47 -59 -35 22 -23 74 17 74 10 0 23 -7 30
-15z m350 -55 l0 -60 20 20 c29 29 84 27 115 -5 23 -22 25 -31 25 -125 l0
-100 -40 0 -39 0 -3 93 c-3 89 -4 92 -27 95 -38 6 -51 -22 -51 -110 l0 -78
-40 0 -40 0 0 165 0 165 40 0 40 0 0 -60z m-880 -80 l0 -120 39 0 c22 0 44 -6
51 -15 14 -17 36 -20 45 -5 10 17 -11 36 -55 49 -41 12 -70 42 -70 73 0 9 11
30 24 45 21 24 31 28 79 28 59 0 97 -22 97 -57 0 -24 -65 -26 -78 -1 -6 10
-16 14 -27 10 -26 -11 -12 -31 34 -48 23 -8 51 -23 62 -33 20 -17 22 -17 44 4
15 14 42 24 70 28 35 4 45 8 43 21 -4 22 -46 27 -54 7 -4 -11 -19 -16 -45 -16
l-38 0 11 31 c25 71 166 80 197 12 6 -13 11 -64 11 -113 l0 -90 -34 0 c-19 0
-38 5 -42 11 -5 8 -9 8 -14 -1 -4 -6 -25 -14 -47 -17 -33 -4 -45 -1 -63 17
-21 21 -23 21 -41 4 -46 -41 -168 -23 -189 29 -8 20 -9 18 -9 -10 -1 -32 -3
-33 -41 -33 l-40 0 0 155 0 155 40 0 40 0 0 -120z m753 31 c19 -19 22 -35 25
-121 l4 -100 -41 0 c-23 0 -41 5 -41 11 0 5 -10 3 -22 -5 -66 -46 -146 15
-118 89 11 29 63 55 110 55 25 0 31 4 28 18 -4 22 -46 29 -54 8 -7 -18 -84
-23 -84 -5 0 21 21 49 48 64 38 22 117 14 145 -14z m-213 -101 l0 -120 -40 0
-40 0 0 120 0 120 40 0 40 0 0 -120z m377 -187 c-11 -3 -16 -11 -13 -19 3 -8
1 -14 -4 -14 -11 0 -13 23 -3 33 3 4 13 6 22 6 12 -1 12 -2 -2 -6z m91 -41 c4
-25 -23 -41 -40 -24 -8 8 -5 9 11 5 17 -4 21 -1 21 17 0 17 -4 21 -20 17 -11
-3 -17 -1 -14 4 10 17 39 5 42 -19z m49 21 c-9 -2 -14 -9 -11 -15 4 -7 2 -8
-5 -4 -15 10 -4 26 17 25 15 -1 15 -2 -1 -6z m81 -28 c4 -33 -4 -33 -10 0 -1
11 -10 23 -18 27 -11 6 -10 7 5 5 14 -1 21 -11 23 -32z m-205 -16 c-6 -6 -19
-9 -29 -6 -15 4 -14 5 5 6 18 1 22 5 16 19 -5 14 -4 15 6 5 10 -10 10 -16 2
-24z m172 11 c-3 -5 -1 -10 6 -10 7 0 10 -3 6 -6 -9 -9 -28 6 -22 17 4 5 8 9
11 9 3 0 2 -4 -1 -10z m-44 -18 c-7 -2 -18 1 -23 6 -8 8 -4 9 13 5 13 -4 18
-8 10 -11z"/>
<path d="M1113 1164 c-3 -8 0 -21 6 -27 14 -14 44 2 49 27 5 22 -46 22 -55 0z"/>
<path d="M1457 1173 c-15 -14 -7 -43 13 -43 16 0 40 26 40 44 0 8 -45 7 -53
-1z"/>
</g>
</svg>
