<?xml version="1.0" standalone="no"?>
<!DOCTYPE svg PUBLIC "-//W3C//DTD SVG 20010904//EN"
 "http://www.w3.org/TR/2001/REC-SVG-20010904/DTD/svg10.dtd">
<svg version="1.0" xmlns="http://www.w3.org/2000/svg"
 width="260.000000pt" height="260.000000pt" viewBox="0 0 260.000000 260.000000"
 preserveAspectRatio="xMidYMid meet">
<metadata>
Created by potrace 1.11, written by Peter Selinger 2001-2013
</metadata>
<g transform="translate(0.000000,260.000000) scale(0.100000,-0.100000)"
fill="#000000" stroke="none">
<path d="M0 1300 l0 -1300 1300 0 1300 0 0 1300 0 1300 -1300 0 -1300 0 0
-1300z m1703 511 c129 -45 222 -156 243 -288 l7 -43 -146 0 -145 0 -7 37 c-9
48 -60 99 -109 109 -105 19 -176 -60 -131 -146 20 -38 81 -69 218 -109 224
-65 312 -141 335 -286 37 -232 -144 -395 -438 -395 -256 0 -440 124 -466 314
l-7 46 145 0 146 0 5 -29 c9 -43 66 -95 120 -111 97 -27 197 17 199 88 2 74
-42 107 -213 157 -198 59 -287 116 -333 214 -30 65 -29 197 1 262 41 91 138
163 261 194 79 20 238 13 315 -14z m-693 -551 l0 -550 -145 0 -145 0 0 550 0
550 145 0 145 0 0 -550z"/>
</g>
</svg>
