<?xml version="1.0" standalone="no"?>
<!DOCTYPE svg PUBLIC "-//W3C//DTD SVG 20010904//EN"
 "http://www.w3.org/TR/2001/REC-SVG-20010904/DTD/svg10.dtd">
<svg version="1.0" xmlns="http://www.w3.org/2000/svg"
 width="260.000000pt" height="260.000000pt" viewBox="0 0 260.000000 260.000000"
 preserveAspectRatio="xMidYMid meet">
<metadata>
Created by potrace 1.11, written by Peter Selinger 2001-2013
</metadata>
<g transform="translate(0.000000,260.000000) scale(0.100000,-0.100000)"
fill="#000000" stroke="none">
<path d="M0 1300 l0 -1300 1300 0 1300 0 0 1300 0 1300 -1300 0 -1300 0 0
-1300z m1413 309 c49 -13 105 -63 128 -114 33 -71 29 -75 -56 -75 -60 0 -75 3
-75 15 0 8 -13 29 -28 46 -23 26 -36 32 -70 32 -54 0 -82 -24 -82 -70 0 -48
26 -68 137 -102 142 -44 193 -91 206 -191 17 -129 -108 -219 -288 -208 -126 8
-220 75 -232 167 l-6 41 71 0 71 0 17 -35 c21 -44 59 -65 119 -65 35 0 52 6
70 25 56 55 18 111 -96 146 -87 26 -157 59 -181 86 -10 10 -24 35 -33 56 -41
99 12 203 124 243 44 16 152 18 204 3z"/>
</g>
</svg>
